<svg xmlns="http://www.w3.org/2000/svg" viewBox="0 0 64 64" width="64" height="64">
  <!-- 树干 -->
  <rect x="26" y="52" width="12" height="10" fill="#8B4513" rx="1"/>
  
  <!-- 树底层 -->
  <polygon points="32,8 4,52 60,52" fill="#228B22"/>
  <polygon points="32,8 4,52 32,52" fill="#2E8B2E"/>
  
  <!-- 树中层 -->
  <polygon points="32,4 10,40 54,40" fill="#32CD32"/>
  <polygon points="32,4 10,40 32,40" fill="#3CB371"/>
  
  <!-- 树顶层 -->
  <polygon points="32,0 16,28 48,28" fill="#90EE90"/>
  <polygon points="32,0 16,28 32,28" fill="#98FB98"/>
  
  <!-- 星星 -->
  <polygon points="32,0 33.5,5 38,5 34.5,8 36,13 32,10 28,13 29.5,8 26,5 30.5,5" fill="#FFD700"/>
  
  <!-- 彩灯 -->
  <circle cx="22" cy="35" r="3" fill="#FF0000"/>
  <circle cx="42" cy="38" r="3" fill="#0000FF"/>
  <circle cx="28" cy="45" r="3" fill="#FFD700"/>
  <circle cx="38" cy="48" r="3" fill="#FF00FF"/>
  <circle cx="32" cy="25" r="2.5" fill="#00FFFF"/>
  <circle cx="25" cy="20" r="2" fill="#FF4500"/>
  <circle cx="39" cy="22" r="2" fill="#32CD32"/>
</svg>